<mxfile host="app.diagrams.net" modified="2021-06-02T12:44:24.356Z" agent="5.0 (Windows NT 10.0; Win64; x64) AppleWebKit/537.36 (KHTML, like Gecko) Chrome/91.0.4472.77 Safari/537.36" etag="mXs8_BHQpUT-Qj5iuQew" version="14.7.3" type="github">
  <diagram id="zqB8ugKSaW6R0mHBLBsb" name="Page-1">
    <mxGraphModel dx="782" dy="650" grid="1" gridSize="10" guides="1" tooltips="1" connect="1" arrows="1" fold="1" page="1" pageScale="1" pageWidth="827" pageHeight="1169" math="0" shadow="0">
      <root>
        <mxCell id="0" />
        <mxCell id="1" parent="0" />
        <mxCell id="JiUhdFRQ0LwXVX9OSHXh-1" value="" style="rounded=0;whiteSpace=wrap;html=1;" parent="1" vertex="1">
          <mxGeometry x="170" y="180" width="390" height="150" as="geometry" />
        </mxCell>
        <mxCell id="JiUhdFRQ0LwXVX9OSHXh-2" value="&lt;span style=&quot;font-size: 14px&quot;&gt;&lt;b&gt;中共 、 南韩 、 日本 &lt;font color=&quot;#6666ff&quot; style=&quot;background-color: rgb(255 , 255 , 255)&quot;&gt;成立&lt;/font&gt; 东亚 政治经济 团 。&lt;span&gt; &lt;/span&gt;&lt;/b&gt;&lt;/span&gt;" style="text;html=1;align=center;verticalAlign=middle;whiteSpace=wrap;rounded=0;" parent="1" vertex="1">
          <mxGeometry x="269" y="200" width="290" height="20" as="geometry" />
        </mxCell>
        <mxCell id="JiUhdFRQ0LwXVX9OSHXh-9" value="&lt;b style=&quot;font-size: 14px&quot;&gt;&lt;span&gt;&amp;nbsp;&lt;/span&gt;&amp;nbsp;O&amp;nbsp; O&amp;nbsp; O&amp;nbsp; O&amp;nbsp; O&amp;nbsp; &lt;/b&gt;&lt;font face=&quot;consolas, monospace&quot; color=&quot;#6666ff&quot;&gt;&lt;span style=&quot;font-size: 20px ; background-color: rgb(255 , 255 , 255)&quot;&gt;o&lt;/span&gt;&lt;/font&gt;&lt;b style=&quot;font-size: 14px&quot;&gt;&amp;nbsp; O&amp;nbsp; O&amp;nbsp; O&amp;nbsp; O&lt;/b&gt;" style="text;html=1;align=center;verticalAlign=middle;whiteSpace=wrap;rounded=0;" parent="1" vertex="1">
          <mxGeometry x="260" y="245" width="190" height="20" as="geometry" />
        </mxCell>
        <mxCell id="JiUhdFRQ0LwXVX9OSHXh-13" value="&lt;span style=&quot;font-size: 14px&quot;&gt;&lt;b&gt;&lt;span&gt;&amp;nbsp;&lt;/span&gt;&amp;nbsp;O&amp;nbsp; O&amp;nbsp; O&amp;nbsp; O&amp;nbsp; O&amp;nbsp;&amp;nbsp;&lt;/b&gt;&lt;/span&gt;&lt;span style=&quot;background-color: rgb(255 , 255 , 255) ; font-family: &amp;#34;consolas&amp;#34; , monospace ; font-size: 15pt&quot;&gt;&lt;font color=&quot;#6666ff&quot;&gt;start-org&lt;/font&gt;&lt;/span&gt;&lt;b style=&quot;font-size: 14px&quot;&gt;&amp;nbsp; O&amp;nbsp; O&amp;nbsp; O&amp;nbsp; O&lt;/b&gt;" style="text;html=1;align=center;verticalAlign=middle;whiteSpace=wrap;rounded=0;" parent="1" vertex="1">
          <mxGeometry x="260" y="292.5" width="280" height="20" as="geometry" />
        </mxCell>
        <mxCell id="JiUhdFRQ0LwXVX9OSHXh-20" value="&lt;font style=&quot;font-size: 14px&quot;&gt;&lt;b&gt;baseline:&lt;/b&gt;&lt;/font&gt;" style="text;html=1;strokeColor=none;fillColor=none;align=center;verticalAlign=middle;whiteSpace=wrap;rounded=0;" parent="1" vertex="1">
          <mxGeometry x="190" y="245" width="70" height="20" as="geometry" />
        </mxCell>
        <mxCell id="JiUhdFRQ0LwXVX9OSHXh-21" value="&lt;font style=&quot;font-size: 14px&quot;&gt;&lt;b&gt;our model:&lt;/b&gt;&lt;/font&gt;" style="text;html=1;strokeColor=none;fillColor=none;align=center;verticalAlign=middle;whiteSpace=wrap;rounded=0;" parent="1" vertex="1">
          <mxGeometry x="180" y="285" width="80" height="35" as="geometry" />
        </mxCell>
        <mxCell id="JiUhdFRQ0LwXVX9OSHXh-28" value="&lt;font style=&quot;font-size: 14px&quot;&gt;&lt;b&gt;sentA:&lt;/b&gt;&lt;/font&gt;" style="text;html=1;strokeColor=none;fillColor=none;align=center;verticalAlign=middle;whiteSpace=wrap;rounded=0;" parent="1" vertex="1">
          <mxGeometry x="205" y="200" width="55" height="20" as="geometry" />
        </mxCell>
        <mxCell id="8HI3L3H8G5eEEZsBTxz3-1" style="edgeStyle=orthogonalEdgeStyle;rounded=0;orthogonalLoop=1;jettySize=auto;html=1;exitX=0.5;exitY=1;exitDx=0;exitDy=0;" edge="1" parent="1" source="JiUhdFRQ0LwXVX9OSHXh-1" target="JiUhdFRQ0LwXVX9OSHXh-1">
          <mxGeometry relative="1" as="geometry" />
        </mxCell>
      </root>
    </mxGraphModel>
  </diagram>
</mxfile>
